<?xml version="1.0" standalone="no"?>
<!DOCTYPE svg PUBLIC "-//W3C//DTD SVG 20010904//EN"
 "http://www.w3.org/TR/2001/REC-SVG-20010904/DTD/svg10.dtd">
<svg version="1.0" xmlns="http://www.w3.org/2000/svg"
 width="2000.000000pt" height="2000.000000pt" viewBox="0 0 2000.000000 2000.000000"
 preserveAspectRatio="xMidYMid meet">
<metadata>
Created by potrace 1.11, written by Peter Selinger 2001-2013
</metadata>
<g transform="translate(0.000000,2000.000000) scale(0.100000,-0.100000)"
fill="#000000" stroke="none">
<path d="M0 10000 l0 -10000 10000 0 10000 0 0 10000 0 10000 -10000 0 -10000
0 0 -10000z m10540 2760 c1076 -90 2094 -376 3189 -894 806 -382 1679 -932
2391 -1507 163 -132 353 -294 388 -331 l23 -25 -83 -75 c-193 -173 -509 -425
-790 -629 -1551 -1127 -3262 -1843 -4823 -2018 -320 -36 -483 -45 -835 -45
-352 0 -515 9 -835 45 -1561 175 -3272 891 -4823 2018 -281 204 -597 456 -790
629 l-83 75 23 25 c35 37 225 199 388 331 712 575 1584 1124 2392 1507 876
415 1708 681 2558 819 267 43 449 62 860 89 103 7 725 -3 850 -14z"/>
<path d="M9740 12074 c-63 -8 -171 -28 -240 -45 -829 -206 -1446 -892 -1564
-1737 -20 -144 -21 -432 -1 -570 131 -922 837 -1636 1760 -1779 150 -23 460
-23 610 0 682 106 1257 524 1562 1137 146 295 212 581 213 922 0 284 -46 533
-145 778 -354 881 -1248 1408 -2195 1294z"/>
</g>
</svg>
