<?xml version="1.0" encoding="utf-8"?>
<!-- Generator: Adobe Illustrator 17.0.0, SVG Export Plug-In . SVG Version: 6.00 Build 0)  -->
<!DOCTYPE svg PUBLIC "-//W3C//DTD SVG 1.1//EN" "http://www.w3.org/Graphics/SVG/1.1/DTD/svg11.dtd">
<svg version="1.1" id="Layer_1" xmlns="http://www.w3.org/2000/svg" xmlns:xlink="http://www.w3.org/1999/xlink" x="0px" y="0px"
	 width="992.13px" height="992.126px" viewBox="0 0 992.13 992.126" enable-background="new 0 0 992.13 992.126"
	 xml:space="preserve">
<g>
	<path fill="#767676" d="M302.07,496.065c0-51.818,20.179-100.535,56.82-137.176c36.642-36.641,85.358-56.82,137.176-56.82
		c38.3,0,74.899,11.035,106.186,31.582L533.926,402h201.488v-0.106h0.04v-201.49l-61.073,61.092
		c-19.534-14.885-40.812-27.248-63.616-36.892c-36.355-15.378-74.946-23.175-114.7-23.175c-39.752,0-78.343,7.797-114.7,23.175
		c-35.09,14.842-66.595,36.079-93.638,63.122c-27.042,27.043-48.28,58.547-63.121,93.638c-15.377,36.355-23.174,74.946-23.174,114.7
		L302.07,496.065z"/>
	<path fill="#767676" d="M690.061,496.063c0,51.819-20.18,100.535-56.82,137.176c-36.64,36.64-85.357,56.82-137.176,56.82
		c-38.303,0-74.904-11.037-106.19-31.584l68.324-68.346H256.71v0.106h-0.04v201.488l61.076-61.096
		c19.535,14.886,40.814,27.249,63.619,36.895c36.355,15.377,74.946,23.174,114.7,23.174c39.754,0,78.345-7.796,114.7-23.174
		c35.091-14.843,66.595-36.08,93.637-63.121c27.044-27.044,48.283-58.549,63.122-93.637c15.378-36.356,23.174-74.947,23.174-114.7
		L690.061,496.063z"/>
</g>
</svg>
