<?xml version="1.0" encoding="utf-8"?>
<!-- Generator: Adobe Illustrator 17.0.0, SVG Export Plug-In . SVG Version: 6.00 Build 0)  -->
<!DOCTYPE svg PUBLIC "-//W3C//DTD SVG 1.1//EN" "http://www.w3.org/Graphics/SVG/1.1/DTD/svg11.dtd">
<svg version="1.1" xmlns="http://www.w3.org/2000/svg" xmlns:xlink="http://www.w3.org/1999/xlink" x="0px" y="0px"
	 width="992.13px" height="992.126px" viewBox="0 0 992.13 992.126" enable-background="new 0 0 992.13 992.126"
	 xml:space="preserve">
<g id="Layer_2_1_" display="none">
	
		<image display="inline" overflow="visible" width="493" height="500" xlink:href="../Снимок экрана 2020-10-16 в 13.09.32.png"  transform="matrix(2.3007 0 0 2.3007 -42.375 -78.2188)">
	</image>
</g>
<g id="Layer_1">
	<g id="Layer_1_1_" display="none">
		
			<image display="inline" overflow="visible" enable-background="new    " width="677" height="638" xlink:href="DB7FDDE7F49B8CB5.png"  transform="matrix(1.6269 0 0 1.6269 -54.9522 -22.8687)">
		</image>
	</g>
	<g id="Layer_4" display="none">
		<rect x="85.076" y="430.851" display="inline" fill="#767676" width="767.875" height="102.149"/>
		<polygon display="inline" fill="#767676" points="906.803,481.883 634.289,209.369 562.233,281.425 762.712,481.894 
			562.215,682.391 634.271,754.447 		"/>
	</g>
	<path fill="#767676" d="M991.817,919.587L793.961,721.731c60.309-75.956,96.338-172.059,96.338-276.581
		C890.299,199.3,690.998,0,445.149,0S0,199.3,0,445.149s199.3,445.149,445.149,445.149c104.522,0,200.625-36.029,276.581-96.338
		l197.857,197.856L991.817,919.587z M101.594,445.149c0-189.74,153.815-343.555,343.555-343.555s343.555,153.815,343.555,343.555
		S634.889,788.704,445.149,788.704S101.594,634.889,101.594,445.149z"/>
</g>
</svg>
